<?xml version="1.0" encoding="utf-8"?>
<!-- Generator: Adobe Illustrator 26.0.1, SVG Export Plug-In . SVG Version: 6.00 Build 0)  -->
<svg version="1.1" xmlns="http://www.w3.org/2000/svg" xmlns:xlink="http://www.w3.org/1999/xlink" x="0px" y="0px"
	 viewBox="0 0 1500 1129.9" style="enable-background:new 0 0 1500 1129.9;" xml:space="preserve">
<style type="text/css">
	.st0{display:none;}
	.st1{fill:#FFFFFF;}
	.st2{display:none;fill:#FFFFFF;}
	.st3{fill:#0049FF;}
</style>
<g id="Layer_1">
	<rect x="-42.8" y="-49.5" class="st0" width="1585.6" height="3149.8"/>
	<g>
		<path class="st1" d="M944.9,292v87.2c0,29.8-12,56.5-31.6,76.1c-19.6,19.5-46.4,31.5-76.3,31.5H663c-32.9,0-62-14.6-81.8-37.7
			l131.2-220.8v138.1c-0.2,17.3,7.6,33.6,19.1,43.7c11.4,10.3,25.8,15.6,40.6,15.6c9.6,0,19.7-2.3,28.8-7.5
			c8.7-4.9,16.4-12.4,21.8-21.5l0,0l229.1-363.6L999,0L950,77.9c-30-26.7-69.6-43-112.9-43H663c-93.9,0-170.1,75.9-170.1,169.9V292
			h62.3v-87.2c0-29.9,12-56.5,31.6-76.1c19.6-19.5,46.4-31.5,76.3-31.5h174.1c31.3,0,59.3,13.3,79,34.5L774.6,356.2V217.6
			c0.2-17.3-7.6-33.6-19.1-43.8c-11.4-10.3-25.8-15.6-40.6-15.6c-9.6,0-19.7,2.3-28.8,7.5c-8.9,5-16.8,12.8-22.2,22.2l0,0
			L447.8,551.5l53.5,31.8l0,0l46.9-78.9C578.5,532.1,618.7,549,663,549h174.1c93.9,0,170.1-75.9,170.1-169.9V292H944.9L944.9,292z"
			/>
		<polygon class="st1" points="243.6,963.9 240.1,963.9 42.4,699.3 0,699.3 0,1035.4 43.8,1035.4 43.8,771.5 47.3,771.5 
			244.3,1035.4 286.7,1035.4 286.7,699.3 243.6,699.3 		"/>
		<path class="st1" d="M537.6,807.9c-11.3-9.8-23.8-16.9-37.6-21.3c-13.8-4.4-27.7-6.6-41.8-6.6c-24.5,0-45.9,5.6-64.2,16.7
			c-18.3,11.1-32.5,26.5-42.7,46.3c-10.2,19.7-15.3,42.5-15.3,68.3c0,25.8,5.1,48.4,15.3,67.9c10.2,19.4,24.7,34.5,43.6,45.3
			c18.9,10.8,41.4,16.2,67.5,16.2c18.4,0,34.9-2.7,49.6-8c14.7-5.3,27.1-12.7,37.1-22.3c10-9.6,17.1-20.7,21.4-33.4l-40.3-10.5
			c-3.5,8.8-8.5,16.1-15,21.9c-6.5,5.9-14.2,10.2-23,13.1c-8.9,2.9-18.8,4.3-29.8,4.3c-16.8,0-31.6-3.4-44.3-10.3
			c-12.7-6.8-22.6-16.9-29.8-30c-6.4-11.9-9.8-26.4-10.4-43.1h196.8v-16.4c0-23.5-3.4-43.3-10.1-59.4
			C557.9,830.6,548.9,817.7,537.6,807.9z M378,889c0.8-11.7,3.8-22.8,9.4-33.2c6.5-12.1,15.7-22,27.8-29.6
			c12.1-7.6,26.4-11.4,43-11.4c15.1,0,28.2,3.2,39.3,9.7c11.1,6.5,19.7,15.3,25.8,26.4c6.1,11.2,9.1,23.8,9.1,38.1H378z"/>
		<path class="st1" d="M725.7,1000.5c-2.9,0.5-6.7,0.7-11.3,0.7c-6.1,0-11.9-0.9-17.4-2.7c-5.5-1.8-9.9-5.4-13.4-10.8
			c-3.5-5.4-5.2-13.6-5.2-24.5v-147h57.9v-32.8h-57.9V723h-41.7v60.4h-41v32.8h41v157.5c0,14.7,3.7,26.8,11,36.4
			c7.4,9.6,16.7,16.8,27.9,21.5c11.2,4.7,22.7,7.1,34.5,7.1c7.8,0,14.2-0.5,19.2-1.6c5.1-1,9-2.1,11.8-3l-8.5-34.8
			C731,999.6,728.6,1000,725.7,1000.5z"/>
		<polygon class="st1" points="829.4,996.7 979.1,814.2 979.1,783.4 776.4,783.4 776.4,819.4 925.4,819.4 925.4,822.1 771.5,1005.9 
			771.5,1035.4 984,1035.4 984,999.3 829.4,999.3 		"/>
		<path class="st1" d="M1130.1,984.2h-2.8l-74.8-200.8h-45.2l100.3,253.4l-7.8,19.7c-5.1,12.8-10.6,22.1-16.7,27.8
			c-6.1,5.7-13,8.9-20.7,9.6c-7.8,0.7-16.7-0.2-26.8-2.6l-10.6,34.1c2.1,1,5.9,2,11.5,3c5.5,1,11.8,1.6,18.9,1.6
			c12.6,0,23.9-2.1,34-6.2c10.1-4.2,18.9-10.5,26.6-19.1c7.6-8.6,14.1-19.4,19.2-32.4l115.1-288.8h-45.2L1130.1,984.2z"/>
		<path class="st1" d="M1488.5,822c-7.7-14.1-18.4-24.6-32.1-31.5c-13.8-6.9-29.8-10.4-48.2-10.4c-20.5,0-37.2,3.9-50.1,11.7
			c-12.9,7.8-22.6,18.1-29,30.9h-3.5v-39.4h-40.3v252h41.7V883.8c0-14.7,3-27.1,9-37.4c6-10.3,14.2-18.1,24.6-23.5
			c10.4-5.3,22.3-8,35.6-8c19.3,0,34.5,5.6,45.6,16.7c11.1,11.1,16.6,26.6,16.6,46.4v157.5h41.7V875.2
			C1500,853.8,1496.2,836.1,1488.5,822z"/>
	</g>
</g>
<g id="Layer_2">
</g>
</svg>
