<?xml version="1.0" encoding="utf-8"?>
<!-- Generator: Adobe Illustrator 26.0.1, SVG Export Plug-In . SVG Version: 6.00 Build 0)  -->
<svg version="1.1" xmlns="http://www.w3.org/2000/svg" xmlns:xlink="http://www.w3.org/1999/xlink" x="0px" y="0px"
	 viewBox="0 0 1500 394.4" style="enable-background:new 0 0 1500 394.4;" xml:space="preserve">
<style type="text/css">
	.st0{display:none;}
	.st1{fill:#FFFFFF;}
	.st2{display:none;fill:#FFFFFF;}
	.st3{fill:#0049FF;}
</style>
<g id="Layer_1">
	<rect x="-42.8" y="-1216.2" class="st0" width="1585.6" height="3149.8"/>
	<g>
		<path class="st1" d="M336.1,197.4v58.9c0,20.2-8.1,38.2-21.4,51.5c-13.3,13.2-31.4,21.3-51.6,21.3H145.4
			c-22.2,0-41.9-9.8-55.3-25.5l88.7-149.3v93.4c-0.1,11.7,5.1,22.7,12.9,29.6c7.7,7,17.4,10.5,27.4,10.6c6.5,0,13.3-1.6,19.5-5.1
			c5.9-3.3,11.1-8.4,14.7-14.5l0,0L408.3,22.4L372.7,0l-33.2,52.7c-20.3-18-47-29.1-76.3-29.1H145.4c-63.5,0-115,51.3-115,114.9
			v58.9h42.1v-58.9c0-20.2,8.1-38.2,21.4-51.5c13.3-13.2,31.4-21.3,51.6-21.3h117.7c21.2,0,40.1,9,53.4,23.3l-95.6,151.8v-93.7
			c0.1-11.7-5.1-22.7-12.9-29.6c-7.7-7-17.4-10.5-27.4-10.6c-6.5,0-13.3,1.6-19.5,5.1c-6,3.4-11.4,8.6-15,15l0,0L0,372.9l36.2,21.5
			l0,0l31.7-53.3c20.5,18.7,47.7,30.2,77.6,30.2h117.7c63.5,0,115-51.3,115-114.9v-58.9H336.1L336.1,197.4z"/>
		<polygon class="st1" points="650.5,264.4 648.1,264.4 514.4,85.5 485.8,85.5 485.8,312.8 515.4,312.8 515.4,134.4 517.8,134.4 
			651,312.8 679.6,312.8 679.6,85.5 650.5,85.5 		"/>
		<path class="st1" d="M849.3,158.9c-7.6-6.6-16.1-11.4-25.4-14.4c-9.3-3-18.7-4.4-28.3-4.4c-16.6,0-31,3.8-43.4,11.3
			c-12.4,7.5-22,17.9-28.9,31.3c-6.9,13.3-10.3,28.7-10.3,46.2s3.4,32.8,10.3,45.9c6.9,13.1,16.7,23.3,29.5,30.6
			c12.8,7.3,28,10.9,45.7,10.9c12.4,0,23.6-1.8,33.5-5.4c9.9-3.6,18.3-8.6,25.1-15.1c6.8-6.5,11.6-14,14.4-22.6l-27.2-7.1
			c-2.4,5.9-5.8,10.9-10.1,14.8c-4.4,4-9.6,6.9-15.6,8.9c-6,2-12.7,2.9-20.1,2.9c-11.4,0-21.4-2.3-30-6.9
			c-8.6-4.6-15.3-11.4-20.1-20.3c-4.4-8.1-6.6-17.8-7-29.1h133v-11.1c0-15.9-2.3-29.3-6.8-40.2C863,174.3,856.9,165.6,849.3,158.9z
			 M741.4,213.8c0.5-7.9,2.6-15.4,6.3-22.4c4.4-8.2,10.6-14.9,18.8-20c8.2-5.1,17.8-7.7,29.1-7.7c10.2,0,19,2.2,26.6,6.6
			c7.5,4.4,13.3,10.3,17.4,17.9c4.1,7.5,6.1,16.1,6.1,25.7H741.4z"/>
		<path class="st1" d="M976.5,289.2c-2,0.3-4.5,0.5-7.6,0.5c-4.1,0-8.1-0.6-11.8-1.8c-3.7-1.2-6.7-3.7-9.1-7.3
			c-2.3-3.7-3.5-9.2-3.5-16.6v-99.4h39.2v-22.2h-39.2v-40.8h-28.2v40.8h-27.7v22.2h27.7v106.5c0,9.9,2.5,18.1,7.5,24.6
			c5,6.5,11.3,11.4,18.9,14.5c7.6,3.2,15.4,4.8,23.3,4.8c5.3,0,9.6-0.3,13-1.1c3.4-0.7,6.1-1.4,8-2l-5.7-23.5
			C980,288.6,978.5,288.9,976.5,289.2z"/>
		<polygon class="st1" points="1046.6,286.6 1147.8,163.2 1147.8,142.3 1010.8,142.3 1010.8,166.8 1111.5,166.8 1111.5,168.5 
			1007.4,292.8 1007.4,312.8 1151.1,312.8 1151.1,288.4 1046.6,288.4 		"/>
		<path class="st1" d="M1249.9,278.2h-1.9l-50.6-135.8h-30.6l67.8,171.3l-5.3,13.3c-3.4,8.6-7.2,14.9-11.3,18.8
			c-4.1,3.9-8.8,6-14,6.5c-5.3,0.4-11.3-0.1-18.1-1.8l-7.2,23.1c1.4,0.7,4,1.3,7.8,2c3.7,0.7,8,1.1,12.8,1.1c8.5,0,16.2-1.4,23-4.2
			c6.8-2.8,12.8-7.1,18-12.9c5.2-5.8,9.5-13.1,13-21.9l77.8-195.3h-30.6L1249.9,278.2z"/>
		<path class="st1" d="M1492.2,168.5c-5.2-9.5-12.4-16.6-21.7-21.3c-9.3-4.7-20.2-7-32.6-7c-13.8,0-25.1,2.6-33.9,7.9
			s-15.3,12.3-19.6,20.9h-2.4v-26.6h-27.2v170.4h28.2V210.2c0-9.9,2-18.3,6.1-25.3c4.1-7,9.6-12.2,16.7-15.9
			c7-3.6,15.1-5.4,24.1-5.4c13.1,0,23.3,3.8,30.8,11.3c7.5,7.5,11.2,18,11.2,31.3v106.5h28.2V204.5
			C1500,190,1497.4,178,1492.2,168.5z"/>
	</g>
</g>
<g id="Layer_2">
</g>
</svg>
