<svg xmlns="http://www.w3.org/2000/svg" width="12" height="14.11" viewBox="0 0 12 14.11">
  <path id="timer_40dp_000000_FILL0_wght400_GRAD200_opsz40" d="M106.635-933.334v-1.336h4.071v1.336Zm1.373,7.389h1.336v-3.965h-1.336v3.965Zm.663,5.385a5.782,5.782,0,0,1-2.333-.474,6.115,6.115,0,0,1-1.9-1.289,6.116,6.116,0,0,1-1.289-1.9,5.785,5.785,0,0,1-.474-2.333,5.784,5.784,0,0,1,.474-2.333,6.115,6.115,0,0,1,1.289-1.9,6.111,6.111,0,0,1,1.9-1.289,5.782,5.782,0,0,1,2.333-.474,5.912,5.912,0,0,1,2,.334,5.724,5.724,0,0,1,1.706.959l.949-.959.949.949-.959.949a6.111,6.111,0,0,1,.989,1.664,5.639,5.639,0,0,1,.368,2.1,5.785,5.785,0,0,1-.474,2.333,6.116,6.116,0,0,1-1.289,1.9,6.115,6.115,0,0,1-1.9,1.289A5.782,5.782,0,0,1,108.67-920.56Zm0-1.336a4.5,4.5,0,0,0,3.3-1.362,4.5,4.5,0,0,0,1.362-3.3,4.5,4.5,0,0,0-1.362-3.3,4.5,4.5,0,0,0-3.3-1.362,4.5,4.5,0,0,0-3.3,1.362,4.5,4.5,0,0,0-1.362,3.3,4.5,4.5,0,0,0,1.362,3.3A4.5,4.5,0,0,0,108.67-921.9ZM108.67-926.55Z" transform="translate(-102.67 934.67)" fill="#0049ff"/>
</svg>
